<svg width="24" height="24" viewBox="0 0 24 24" fill="none" xmlns="http://www.w3.org/2000/svg">
<path d="M20.9064 5.34352C19.8874 4.32714 18.5075 3.75557 17.0683 3.75381C15.6291 3.75206 14.2478 4.32025 13.2264 5.33415L12.0001 6.47321L10.7729 5.3304C9.75176 4.31209 8.3679 3.74115 6.92577 3.74317C5.48365 3.74519 4.10139 4.32001 3.08308 5.34118C2.06478 6.36235 1.49383 7.74621 1.49585 9.18833C1.49788 10.6305 2.0727 12.0127 3.09386 13.031L11.4704 21.5304C11.5402 21.6013 11.6234 21.6575 11.7151 21.696C11.8069 21.7344 11.9053 21.7541 12.0048 21.7541C12.1043 21.7541 12.2027 21.7344 12.2945 21.696C12.3862 21.6575 12.4694 21.6013 12.5392 21.5304L20.9064 13.031C21.9254 12.0114 22.4978 10.6288 22.4978 9.18727C22.4978 7.74572 21.9254 6.36316 20.9064 5.34352ZM19.8423 11.9773L12.0001 19.931L4.15324 11.9698C3.41478 11.2313 2.99991 10.2297 2.99991 9.1854C2.99991 8.14105 3.41478 7.13948 4.15324 6.40102C4.8917 5.66256 5.89327 5.2477 6.93761 5.2477C7.98196 5.2477 8.98353 5.66256 9.72199 6.40102L9.74074 6.41977L11.4892 8.04634C11.628 8.17549 11.8105 8.2473 12.0001 8.2473C12.1897 8.2473 12.3723 8.17549 12.5111 8.04634L14.2595 6.41977L14.2782 6.40102C15.0172 5.66306 16.019 5.24887 17.0634 5.24957C18.1077 5.25027 19.109 5.66581 19.847 6.40477C20.585 7.14373 20.9991 8.14558 20.9984 9.18992C20.9977 10.2343 20.5822 11.2356 19.8432 11.9735L19.8423 11.9773Z" fill="white"/>
</svg>
